<?xml version="1.0" encoding="UTF-8" standalone="no"?>
<svg
   xmlns:dc="http://purl.org/dc/elements/1.1/"
   xmlns:cc="http://creativecommons.org/ns#"
   xmlns:rdf="http://www.w3.org/1999/02/22-rdf-syntax-ns#"
   xmlns:svg="http://www.w3.org/2000/svg"
   xmlns="http://www.w3.org/2000/svg"
   xmlns:sodipodi="http://sodipodi.sourceforge.net/DTD/sodipodi-0.dtd"
   xmlns:inkscape="http://www.inkscape.org/namespaces/inkscape"
   version="1.1"
   width="256"
   height="256"
   viewBox="0 0 256 256"
   xml:space="preserve"
   id="svg12"
   sodipodi:docname="user (copy).svg"
   inkscape:version="0.92.5 (2060ec1f9f, 2020-04-08)"><metadata
   id="metadata16"><rdf:RDF><cc:Work
       rdf:about=""><dc:format>image/svg+xml</dc:format><dc:type
         rdf:resource="http://purl.org/dc/dcmitype/StillImage" /></cc:Work></rdf:RDF></metadata><sodipodi:namedview
   pagecolor="#ffffff"
   bordercolor="#666666"
   borderopacity="1"
   objecttolerance="10"
   gridtolerance="10"
   guidetolerance="10"
   inkscape:pageopacity="0"
   inkscape:pageshadow="2"
   inkscape:window-width="1280"
   inkscape:window-height="987"
   id="namedview14"
   showgrid="false"
   inkscape:zoom="0.921875"
   inkscape:cx="128"
   inkscape:cy="128"
   inkscape:window-x="0"
   inkscape:window-y="0"
   inkscape:window-maximized="1"
   inkscape:current-layer="svg12" />
<desc
   id="desc2">Created with Fabric.js 1.7.22</desc>
<defs
   id="defs4">
</defs>
<g
   transform="translate(128 128) scale(0.72 0.72)"
   style="fill:#000000"
   id="g10">
	<g
   style="stroke:none;stroke-width:0;stroke-dasharray:none;stroke-linecap:butt;stroke-linejoin:miter;stroke-miterlimit:10;fill:#000000;fill-rule:nonzero;opacity:1"
   transform="translate(-175.05 -175.05000000000004) scale(3.89 3.89)"
   id="g8">
	<path
   d="M 79.635 73.696 C 86.104 65.901 90 55.898 90 45 C 90 20.187 69.813 0 45 0 C 20.187 0 0 20.187 0 45 c 0 10.898 3.896 20.901 10.365 28.696 c 0.105 0.161 0.227 0.315 0.383 0.445 c 0.002 0.002 0.005 0.003 0.007 0.005 C 19.015 83.837 31.298 90 45 90 c 13.702 0 25.985 -6.163 34.245 -15.854 c 0.003 -0.002 0.005 -0.003 0.008 -0.005 C 79.408 74.01 79.53 73.857 79.635 73.696 z M 45 4 c 22.607 0 41 18.393 41 41 c 0 9.169 -3.026 17.645 -8.132 24.482 c -6.081 -6.505 -13.876 -10.99 -22.402 -13.023 c 6.497 -3.669 10.901 -10.629 10.901 -18.609 c 0 -11.782 -9.585 -21.367 -21.367 -21.367 c -11.782 0 -21.367 9.585 -21.367 21.367 c 0 7.979 4.404 14.939 10.901 18.608 c -8.526 2.033 -16.321 6.518 -22.402 13.023 C 7.026 62.645 4 54.169 4 45 C 4 22.393 22.393 4 45 4 z M 45 55.217 c -9.576 0 -17.367 -7.791 -17.367 -17.367 S 35.424 20.482 45 20.482 s 17.367 7.791 17.367 17.367 S 54.576 55.217 45 55.217 z M 45 86 c -11.986 0 -22.787 -5.171 -30.29 -13.399 C 22.48 64.079 33.418 59.217 45 59.217 c 11.581 0 22.52 4.863 30.29 13.384 C 67.787 80.829 56.986 86 45 86 z"
   style="stroke:none;stroke-width:1;stroke-dasharray:none;stroke-linecap:butt;stroke-linejoin:miter;stroke-miterlimit:10;fill:#000000;fill-rule:nonzero;opacity:1"
   transform=" matrix(1 0 0 1 0 0) "
   stroke-linecap="round"
   id="path6" />
</g>
</g>
</svg>