<svg width="274" height="65" viewBox="0 0 274 65" fill="none" xmlns="http://www.w3.org/2000/svg">
<path d="M46.1161 53.0382C42.5673 49.529 37.8521 47.5959 32.8383 47.5959C27.8246 47.5959 23.1094 49.529 19.5605 53.0382C23.9398 48.7071 26.7764 43.2556 27.7966 37.3392C29.445 37.0591 31.1308 36.9175 32.8383 36.9175C34.5459 36.9175 36.2316 37.0591 37.8801 37.3392C38.9002 43.2556 41.7368 48.7071 46.1161 53.0382Z" fill="#1E53CF"/>
<path d="M53.7454 45.487L46.1159 53.0379C41.7366 48.7068 38.9001 43.2552 37.8799 37.3389C43.8578 38.3485 49.3661 41.1559 53.7454 45.487Z" fill="#388BF6"/>
<path d="M48.2468 32.349C48.2468 37.3111 50.2 41.9777 53.7457 45.4869C49.3665 41.1558 43.8582 38.3485 37.8802 37.3388C37.5972 35.7043 37.4541 34.0389 37.4541 32.349C37.4541 30.6529 37.6003 28.9752 37.8833 27.3376C43.6964 26.3495 49.2669 23.6407 53.7457 19.208C50.2 22.7172 48.2468 27.3838 48.2468 32.349Z" fill="#1E53CF"/>
<path d="M27.7967 37.3389C26.7765 43.2552 23.9399 48.7068 19.5607 53.0379L11.9312 45.487C16.3104 41.1559 21.8187 38.3485 27.7967 37.3389Z" fill="#388BF6"/>
<path d="M28.2228 32.349C28.2228 34.0389 28.0797 35.7043 27.7967 37.3388C21.8187 38.3485 16.3104 41.1558 11.9312 45.4869C15.4769 41.9777 17.4301 37.3111 17.4301 32.349C17.4301 27.3838 15.4769 22.7172 11.9312 19.208C16.41 23.6407 21.9805 26.3495 27.7936 27.3376C28.0766 28.9752 28.2228 30.6529 28.2228 32.349Z" fill="#1E53CF"/>
<path d="M53.7457 19.2081C49.2669 23.6408 43.6964 26.3496 37.8833 27.3378C38.9097 21.4245 41.7432 15.9821 46.1162 11.6572L53.7457 19.2081Z" fill="#2275E7"/>
<path d="M27.7936 27.3378C21.9805 26.3496 16.41 23.6408 11.9312 19.2081L19.5607 11.6572C23.9337 15.9821 26.7672 21.4245 27.7936 27.3378Z" fill="#2275E7"/>
<path d="M46.1161 11.6572C41.743 15.9821 38.9096 21.4245 37.8832 27.3378C36.2161 27.624 34.5272 27.7656 32.8383 27.7656C31.1494 27.7656 29.4606 27.624 27.7935 27.3378C26.7671 21.4245 23.9336 15.9821 19.5605 11.6572C26.8821 18.9003 38.7945 18.9003 46.1161 11.6572Z" fill="#04337F"/>
<path d="M32.8382 8.08344C35.0936 8.08344 36.922 6.2739 36.922 4.04172C36.922 1.80954 35.0936 0 32.8382 0C30.5828 0 28.7544 1.80954 28.7544 4.04172C28.7544 6.2739 30.5828 8.08344 32.8382 8.08344Z" fill="#04337F"/>
<path d="M4.08379 36.5419C6.33921 36.5419 8.16759 34.7324 8.16759 32.5002C8.16759 30.268 6.33921 28.4585 4.08379 28.4585C1.82838 28.4585 0 30.268 0 32.5002C0 34.7324 1.82838 36.5419 4.08379 36.5419Z" fill="#1E53CF"/>
<path d="M61.5926 36.5419C63.848 36.5419 65.6764 34.7324 65.6764 32.5002C65.6764 30.268 63.848 28.4585 61.5926 28.4585C59.3372 28.4585 57.5088 30.268 57.5088 32.5002C57.5088 34.7324 59.3372 36.5419 61.5926 36.5419Z" fill="#1E53CF"/>
<path d="M32.8382 65C35.0936 65 36.922 63.1904 36.922 60.9582C36.922 58.726 35.0936 56.9165 32.8382 56.9165C30.5828 56.9165 28.7544 58.726 28.7544 60.9582C28.7544 63.1904 30.5828 65 32.8382 65Z" fill="#1E53CF"/>
<path d="M79.4229 33.6914V21.0698H84.9437V33.2065C84.9437 36.2313 86.3582 37.7956 88.6691 37.7956C90.9455 37.7956 92.3601 36.2313 92.3601 33.2065V21.0698H97.8809V33.7289C97.8809 39.5707 94.2586 42.7715 88.6691 42.7715C83.0795 42.7715 79.4229 39.5678 79.4229 33.6914Z" fill="#191919"/>
<path d="M106.297 35.3596V42.4194H100.813V21.0698H110.334C114.887 21.0698 118.028 23.679 118.028 28.3374C118.028 31.5729 116.408 33.7982 113.819 34.7708L118.787 42.4223H112.645L108.229 35.3596H106.297ZM106.297 30.909H109.747C111.714 30.909 112.611 29.9017 112.611 28.3345C112.611 26.7673 111.714 25.76 109.747 25.76H106.297V30.909Z" fill="#191919"/>
<path d="M132.999 21.0698L141.071 42.4223H135.447L133.93 38.2834H126.235L124.752 42.4223H119.266L127.338 21.0698H132.999ZM127.928 33.6914H132.274L130.101 27.6764L127.928 33.6914Z" fill="#191919"/>
<path d="M161.6 42.4194H157.115L148.25 29.9364V42.4194H142.904V21.0698H148.078L156.253 32.8226V21.0698H161.6V42.4194Z" fill="#191919"/>
<path d="M164.532 33.6914V21.0698H170.053V33.2065C170.053 36.2313 171.467 37.7956 173.778 37.7956C176.054 37.7956 177.469 36.2313 177.469 33.2065V21.0698H182.99V33.7289C182.99 39.5707 179.367 42.7715 173.778 42.7715C168.188 42.7715 164.532 39.5678 164.532 33.6914Z" fill="#191919"/>
<path d="M190.509 36.09C190.959 37.5504 192.199 38.2806 193.925 38.2806C195.615 38.2806 196.789 37.5504 196.789 36.2285C196.789 35.2212 196.133 34.7681 194.787 34.4564L190.715 33.5876C187.611 32.892 185.263 31.2584 185.263 27.6419C185.266 23.4684 188.714 20.7207 193.407 20.7207C198.581 20.7207 201.514 23.5723 202.101 27.2581H196.683C196.233 26.0747 195.268 25.1713 193.439 25.1713C191.852 25.1713 190.781 25.8669 190.781 27.0502C190.781 27.9883 191.437 28.5107 192.539 28.7531L196.68 29.7258C200.302 30.5946 202.304 32.5774 202.304 35.8822C202.304 40.2635 198.647 42.7688 194.023 42.7688C188.952 42.7688 185.501 40.301 184.742 36.0929H190.509V36.09Z" fill="#191919"/>
<path d="M214.459 33.2672C214.299 32.0751 213.357 31.1862 211.733 31.1862C210.21 31.1862 209.007 32.0145 209.007 33.4692C209.007 34.3177 209.509 34.8026 210.591 35.1259L212.655 35.7522C214.239 36.2371 215.141 37.1261 215.141 38.6211C215.141 41.1062 213.076 42.6013 210.671 42.6013C208.226 42.6013 206.402 41.3689 206.201 39.0252H207.765C207.965 40.5405 209.208 41.2476 210.671 41.2476C212.335 41.2476 213.598 40.3789 213.598 38.7828C213.598 38.0352 213.177 37.4695 211.974 37.1059L209.889 36.4796C208.446 36.0351 207.464 35.2471 207.464 33.651C207.464 31.3882 209.308 29.8325 211.733 29.8325C214.359 29.8325 215.823 31.2266 216.003 33.2672H214.459Z" fill="#191919"/>
<path d="M217.566 30.0146H227.709L227.468 31.4289H223.179L221.254 42.4197H219.671L221.595 31.4289H217.306L217.566 30.0146Z" fill="#191919"/>
<path d="M228.21 38.6214C228.21 38.2578 228.25 37.8739 228.35 37.3082L229.613 30.0146H231.197L229.914 37.3082C229.854 37.6921 229.814 38.0557 229.814 38.379C229.814 40.2175 230.856 41.1873 232.58 41.1873C234.644 41.1873 235.967 39.9549 236.428 37.3082L237.691 30.0146H239.275L237.972 37.5102C237.37 40.8641 235.386 42.6016 232.58 42.6016C230.014 42.6016 228.21 41.2479 228.21 38.6214Z" fill="#191919"/>
<path d="M242.041 30.0146H245.789C249.096 30.0146 250.88 31.9946 250.88 35.2272C250.88 39.3084 248.034 42.4197 243.845 42.4197H239.876L242.041 30.0146ZM244.045 40.9853C247.212 40.9853 249.297 38.581 249.297 35.2272C249.297 32.8836 248.054 31.4289 245.589 31.4289H243.364L241.68 40.9853H244.045Z" fill="#191919"/>
<path d="M260.963 30.0146H262.706L256.954 37.3082L256.052 42.4197H254.488L255.39 37.3082L252.203 30.0146H253.847L256.372 35.8737L260.963 30.0146Z" fill="#191919"/>
</svg>
